<?xml version="1.0" encoding="UTF-8" standalone="no"?>
<svg
   xmlns:dc="http://purl.org/dc/elements/1.1/"
   xmlns:cc="http://creativecommons.org/ns#"
   xmlns:rdf="http://www.w3.org/1999/02/22-rdf-syntax-ns#"
   xmlns:svg="http://www.w3.org/2000/svg"
   xmlns="http://www.w3.org/2000/svg"
   xmlns:sodipodi="http://sodipodi.sourceforge.net/DTD/sodipodi-0.dtd"
   xmlns:inkscape="http://www.inkscape.org/namespaces/inkscape"
   version="1.1"
   id="Calque_1"
   x="0px"
   y="0px"
   viewBox="0 0 540 540"
   style="enable-background:new 0 0 540 540;"
   xml:space="preserve"
   sodipodi:docname="logo_text.svg"
   inkscape:version="1.0beta2 (2b71d25, 2019-12-03)"><metadata
   id="metadata942"><rdf:RDF><cc:Work
       rdf:about=""><dc:format>image/svg+xml</dc:format><dc:type
         rdf:resource="http://purl.org/dc/dcmitype/StillImage" /><dc:title></dc:title></cc:Work></rdf:RDF></metadata><defs
   id="defs940" /><sodipodi:namedview
   pagecolor="#ffffff"
   bordercolor="#666666"
   inkscape:document-rotation="0"
   borderopacity="1"
   objecttolerance="10"
   gridtolerance="10"
   guidetolerance="10"
   inkscape:pageopacity="0"
   inkscape:pageshadow="2"
   inkscape:window-width="1262"
   inkscape:window-height="803"
   id="namedview938"
   showgrid="false"
   inkscape:zoom="1.1981481"
   inkscape:cx="969.41267"
   inkscape:cy="277.51159"
   inkscape:window-x="118"
   inkscape:window-y="41"
   inkscape:window-maximized="0"
   inkscape:current-layer="Calque_1" />
<style
   type="text/css"
   id="style833">
	.st0{fill:#00363A;}
	.st1{fill-rule:evenodd;clip-rule:evenodd;fill:#C4001D;}
	.st2{fill-rule:evenodd;clip-rule:evenodd;fill:#FF616F;}
	.st3{fill-rule:evenodd;clip-rule:evenodd;fill:#FF1744;}
	.st4{fill:#FFFFFF;}
</style>
<rect
   x="669.74"
   y="-2.87"
   class="st0"
   width="546.7"
   height="546.7"
   id="rect835" />
<text
   transform="matrix(1 0 0 1 -510.2002 341.0789)"
   class="st0"
   style="font-family:'RedHatDisplay-Bold'; font-size:72px;"
   id="text837">sarus</text>
<text
   transform="matrix(1 0 0 1 -461.8148 363.0028)"
   class="st0"
   style="font-family:'RedHatDisplay-Medium'; font-size:14px;"
   id="text839">technologies</text>
<path
   class="st0"
   d="M130.37,382.48l7.59-10.16c3.42,2.23,6.66,3.89,9.71,4.97c3.05,1.08,6.1,1.62,9.16,1.62  c3.42,0,6.16-0.56,8.21-1.68c2.05-1.12,3.07-2.61,3.07-4.47c0-1.49-0.58-2.68-1.73-3.57c-1.15-0.89-3-1.53-5.53-1.9l-11.17-1.68  c-5.73-0.89-10.11-2.75-13.12-5.58c-3.01-2.83-4.52-6.59-4.52-11.28c0-5.58,2.2-10.05,6.59-13.4c4.39-3.35,10.27-5.03,17.64-5.03  c4.24,0,8.38,0.61,12.4,1.84c4.02,1.23,7.85,3.04,11.5,5.42l-7.37,9.83c-3.2-1.86-6.25-3.25-9.16-4.19  c-2.9-0.93-5.84-1.39-8.82-1.39c-2.75,0-4.97,0.52-6.64,1.56c-1.68,1.04-2.51,2.42-2.51,4.13c0,1.56,0.61,2.77,1.84,3.63  c1.23,0.86,3.26,1.47,6.09,1.84l11.17,1.68c5.66,0.82,10.03,2.68,13.12,5.58c3.09,2.9,4.63,6.59,4.63,11.05  c0,2.75-0.65,5.3-1.95,7.65c-1.3,2.35-3.07,4.37-5.3,6.09c-2.23,1.71-4.91,3.05-8.04,4.02s-6.51,1.45-10.16,1.45  c-5.29,0-10.24-0.69-14.85-2.07C137.58,387.08,133.64,385.09,130.37,382.48z"
   id="path841" />
<path
   class="st0"
   d="M208.53,390.41c-6.25,0-11.35-1.66-15.3-4.97c-3.95-3.31-5.92-7.61-5.92-12.9c0-5.51,2.12-9.83,6.36-12.95  c4.24-3.13,10.09-4.69,17.53-4.69c2.38,0,4.76,0.19,7.15,0.56c2.38,0.37,4.73,0.93,7.04,1.68V353c0-3.35-1.04-5.88-3.13-7.59  c-2.08-1.71-5.14-2.57-9.16-2.57c-2.46,0-5.12,0.39-7.98,1.17c-2.87,0.78-6.12,1.99-9.77,3.63l-5.58-11.28  c4.54-2.08,8.95-3.65,13.23-4.69c4.28-1.04,8.5-1.56,12.67-1.56c7.82,0,13.9,1.88,18.26,5.64c4.36,3.76,6.53,9.06,6.53,15.91v37.74  h-15.07v-4.02c-2.46,1.71-5.04,2.98-7.76,3.8C214.91,390,211.88,390.41,208.53,390.41z M201.94,372.21c0,2.23,0.97,4,2.9,5.3  c1.93,1.3,4.5,1.95,7.7,1.95c2.53,0,4.86-0.32,6.98-0.95c2.12-0.63,4.08-1.54,5.86-2.74v-8.71c-1.86-0.74-3.82-1.28-5.86-1.62  c-2.05-0.33-4.19-0.5-6.42-0.5c-3.5,0-6.24,0.65-8.21,1.95C202.93,368.21,201.94,369.97,201.94,372.21z"
   id="path843" />
<path
   class="st0"
   d="M252.08,389.4v-58.18h15.3v6.36c1.86-2.53,4.11-4.45,6.76-5.75c2.64-1.3,5.56-1.95,8.76-1.95  c1.49,0.08,2.74,0.21,3.74,0.39c1.01,0.19,1.88,0.5,2.62,0.95v13.4c-1.12-0.52-2.35-0.91-3.68-1.17c-1.34-0.26-2.72-0.39-4.13-0.39  c-2.98,0-5.71,0.75-8.21,2.23c-2.5,1.49-4.45,3.65-5.86,6.48v37.63H252.08z"
   id="path845" />
<path
   class="st0"
   d="M311.04,331.23v33.83c0,3.72,1.1,6.7,3.29,8.93c2.19,2.23,5.12,3.35,8.77,3.35c2.61,0,4.93-0.5,6.98-1.51  c2.05-1.01,3.74-2.44,5.08-4.3v-40.31h15.3v58.18h-15.3v-4.69c-2.23,1.86-4.73,3.29-7.48,4.3c-2.75,1.01-5.73,1.51-8.93,1.51  c-6.7,0-12.21-2.18-16.53-6.53c-4.32-4.35-6.48-9.92-6.48-16.69v-36.07H311.04z"
   id="path847" />
<path
   class="st0"
   d="M357.49,382.48l7.59-10.16c3.42,2.23,6.66,3.89,9.71,4.97c3.05,1.08,6.1,1.62,9.16,1.62  c3.42,0,6.16-0.56,8.21-1.68c2.05-1.12,3.07-2.61,3.07-4.47c0-1.49-0.58-2.68-1.73-3.57c-1.16-0.89-3-1.53-5.53-1.9l-11.17-1.68  c-5.73-0.89-10.11-2.75-13.12-5.58c-3.01-2.83-4.52-6.59-4.52-11.28c0-5.58,2.19-10.05,6.59-13.4c4.39-3.35,10.27-5.03,17.64-5.03  c4.24,0,8.38,0.61,12.4,1.84c4.02,1.23,7.85,3.04,11.5,5.42l-7.37,9.83c-3.2-1.86-6.25-3.25-9.16-4.19  c-2.9-0.93-5.84-1.39-8.82-1.39c-2.75,0-4.97,0.52-6.64,1.56c-1.68,1.04-2.51,2.42-2.51,4.13c0,1.56,0.61,2.77,1.84,3.63  c1.23,0.86,3.25,1.47,6.09,1.84l11.17,1.68c5.66,0.82,10.03,2.68,13.12,5.58c3.09,2.9,4.63,6.59,4.63,11.05  c0,2.75-0.65,5.3-1.95,7.65c-1.3,2.35-3.07,4.37-5.3,6.09c-2.23,1.71-4.91,3.05-8.04,4.02c-3.13,0.97-6.52,1.45-10.16,1.45  c-5.29,0-10.24-0.69-14.85-2.07C364.71,387.08,360.76,385.09,357.49,382.48z"
   id="path849" />
<path
   class="st0"
   d="M206.93,420.67v-6.49h-2.35v-1.82h2.35v-2.82l2.15-0.52v3.34h3.26v1.82h-3.26v5.99c0,0.56,0.13,0.96,0.38,1.19  c0.25,0.23,0.67,0.35,1.25,0.35c0.3,0,0.58-0.02,0.81-0.05c0.24-0.04,0.5-0.1,0.77-0.21v1.82c-0.29,0.1-0.63,0.18-1.01,0.24  c-0.38,0.06-0.74,0.09-1.05,0.09c-1.07,0-1.89-0.25-2.45-0.75C207.21,422.35,206.93,421.62,206.93,420.67z"
   id="path851" />
<path
   class="st0"
   d="M223.84,422.15c-0.64,0.49-1.3,0.86-2,1.1c-0.69,0.24-1.45,0.36-2.28,0.36c-0.81,0-1.57-0.15-2.28-0.45  c-0.71-0.3-1.32-0.7-1.85-1.21c-0.52-0.51-0.93-1.11-1.23-1.81c-0.3-0.7-0.45-1.46-0.45-2.27c0-0.8,0.14-1.54,0.43-2.24  c0.29-0.7,0.68-1.3,1.17-1.8c0.49-0.51,1.08-0.91,1.76-1.21c0.68-0.3,1.4-0.45,2.17-0.45c0.75,0,1.46,0.15,2.12,0.45  c0.66,0.3,1.22,0.7,1.69,1.22c0.47,0.51,0.84,1.13,1.12,1.83c0.27,0.71,0.41,1.47,0.41,2.28v0.63h-8.73  c0.14,0.91,0.56,1.67,1.26,2.27c0.69,0.6,1.52,0.9,2.47,0.9c0.54,0,1.05-0.09,1.54-0.26c0.49-0.17,0.91-0.41,1.26-0.72  L223.84,422.15z M219.26,414c-0.82,0-1.54,0.27-2.16,0.82c-0.61,0.55-1,1.26-1.16,2.13h6.56c-0.16-0.84-0.54-1.54-1.14-2.11  C220.75,414.29,220.05,414,219.26,414z"
   id="path853" />
<path
   class="st0"
   d="M232.31,421.69c0.55,0,1.07-0.11,1.56-0.34c0.49-0.22,0.96-0.56,1.41-1.01l1.3,1.41  c-0.58,0.58-1.24,1.03-2,1.36c-0.75,0.33-1.54,0.49-2.37,0.49c-0.8,0-1.54-0.15-2.24-0.45c-0.69-0.3-1.3-0.7-1.8-1.21  c-0.51-0.51-0.91-1.11-1.2-1.81c-0.3-0.7-0.45-1.46-0.45-2.27c0-0.8,0.15-1.54,0.45-2.25c0.3-0.7,0.7-1.31,1.2-1.83  c0.51-0.51,1.11-0.92,1.8-1.21c0.7-0.3,1.44-0.45,2.24-0.45c0.83,0,1.63,0.16,2.41,0.49s1.46,0.78,2.04,1.36l-1.37,1.48  c-0.42-0.45-0.89-0.79-1.41-1.03c-0.52-0.24-1.06-0.36-1.63-0.36c-1,0-1.85,0.37-2.54,1.11c-0.7,0.74-1.04,1.64-1.04,2.69  c0,1.09,0.35,1.99,1.05,2.72C230.44,421.32,231.29,421.69,232.31,421.69z"
   id="path855" />
<path
   class="st0"
   d="M238.67,423.4v-15.2l2.17-0.48v5.73c0.43-0.43,0.93-0.76,1.49-0.99c0.56-0.22,1.17-0.34,1.83-0.34  c1.26,0,2.29,0.4,3.1,1.2c0.81,0.8,1.22,1.84,1.22,3.12v6.95h-2.17v-6.58c0-0.87-0.25-1.55-0.75-2.05c-0.5-0.5-1.16-0.75-1.99-0.75  c-0.58,0-1.1,0.12-1.57,0.37c-0.47,0.25-0.86,0.6-1.16,1.06v7.95H238.67z"
   id="path857" />
<path
   class="st0"
   d="M251.31,423.4v-11.05h2.17v1.11c0.43-0.43,0.93-0.76,1.49-0.99c0.56-0.22,1.17-0.34,1.83-0.34  c1.26,0,2.29,0.4,3.1,1.2c0.81,0.8,1.22,1.84,1.22,3.12v6.95h-2.17v-6.58c0-0.87-0.25-1.55-0.75-2.05c-0.5-0.5-1.16-0.75-1.99-0.75  c-0.58,0-1.1,0.12-1.57,0.37c-0.47,0.25-0.86,0.6-1.16,1.06v7.95H251.31z"
   id="path859" />
<path
   class="st0"
   d="M263.44,417.87c0-0.8,0.15-1.54,0.45-2.25c0.3-0.7,0.71-1.31,1.23-1.83c0.52-0.51,1.13-0.92,1.83-1.21  c0.7-0.3,1.45-0.45,2.25-0.45c0.8,0,1.54,0.15,2.25,0.45c0.7,0.3,1.31,0.7,1.82,1.21c0.51,0.51,0.92,1.12,1.22,1.83  c0.3,0.7,0.45,1.45,0.45,2.25c0,0.81-0.15,1.57-0.45,2.27c-0.3,0.7-0.7,1.31-1.22,1.83c-0.51,0.51-1.12,0.92-1.82,1.21  c-0.7,0.3-1.45,0.45-2.25,0.45c-0.8,0-1.54-0.15-2.25-0.45c-0.7-0.3-1.31-0.7-1.83-1.21s-0.93-1.12-1.23-1.83  C263.59,419.44,263.44,418.68,263.44,417.87z M269.2,421.71c1,0,1.85-0.37,2.55-1.12c0.7-0.75,1.05-1.65,1.05-2.72  c0-1.07-0.35-1.97-1.05-2.71c-0.7-0.74-1.55-1.11-2.55-1.11c-1,0-1.85,0.37-2.56,1.11c-0.71,0.74-1.06,1.64-1.06,2.71  c0,1.07,0.35,1.98,1.05,2.72C267.33,421.34,268.18,421.71,269.2,421.71z"
   id="path861" />
<path
   class="st0"
   d="M279.49,407.73v15.68h-2.17v-15.2L279.49,407.73z"
   id="path863" />
<path
   class="st0"
   d="M281.88,417.87c0-0.8,0.15-1.54,0.45-2.25c0.3-0.7,0.71-1.31,1.23-1.83c0.52-0.51,1.13-0.92,1.83-1.21  c0.7-0.3,1.45-0.45,2.25-0.45s1.54,0.15,2.25,0.45c0.7,0.3,1.31,0.7,1.82,1.21c0.51,0.51,0.92,1.12,1.22,1.83  c0.3,0.7,0.45,1.45,0.45,2.25c0,0.81-0.15,1.57-0.45,2.27c-0.3,0.7-0.7,1.31-1.22,1.83s-1.12,0.92-1.82,1.21  c-0.7,0.3-1.45,0.45-2.25,0.45s-1.54-0.15-2.25-0.45c-0.7-0.3-1.31-0.7-1.83-1.21c-0.52-0.51-0.93-1.12-1.23-1.83  C282.03,419.44,281.88,418.68,281.88,417.87z M287.63,421.71c1,0,1.85-0.37,2.55-1.12c0.7-0.75,1.05-1.65,1.05-2.72  c0-1.07-0.35-1.97-1.05-2.71c-0.7-0.74-1.55-1.11-2.55-1.11c-1,0-1.85,0.37-2.56,1.11c-0.71,0.74-1.06,1.64-1.06,2.71  c0,1.07,0.35,1.98,1.05,2.72C285.76,421.34,286.62,421.71,287.63,421.71z"
   id="path865" />
<path
   class="st0"
   d="M300.81,423.49c-0.77,0-1.49-0.15-2.17-0.45c-0.68-0.3-1.27-0.7-1.77-1.2c-0.5-0.51-0.89-1.11-1.18-1.8  s-0.43-1.43-0.43-2.21c0-0.78,0.15-1.52,0.43-2.22c0.29-0.69,0.68-1.29,1.18-1.8c0.5-0.51,1.09-0.91,1.78-1.2  c0.69-0.3,1.42-0.45,2.2-0.45c0.59,0,1.17,0.09,1.73,0.28c0.56,0.19,1.08,0.46,1.55,0.83v-0.91h2.15v11.2  c0,1.43-0.44,2.54-1.31,3.31c-0.88,0.77-2.12,1.16-3.75,1.16c-0.8,0-1.58-0.1-2.36-0.28c-0.77-0.19-1.47-0.46-2.09-0.8l0.85-1.69  c0.62,0.32,1.22,0.56,1.8,0.72c0.58,0.16,1.16,0.24,1.74,0.24c0.96,0,1.69-0.22,2.19-0.67c0.51-0.45,0.76-1.11,0.76-1.98v-1.24  c-0.46,0.38-0.98,0.67-1.54,0.87C302.01,423.39,301.42,423.49,300.81,423.49z M297.38,417.83c0,1.06,0.35,1.95,1.06,2.68  c0.71,0.73,1.59,1.1,2.63,1.1c0.62,0,1.19-0.11,1.72-0.34c0.52-0.22,0.96-0.54,1.32-0.95v-4.99c-0.35-0.4-0.78-0.72-1.31-0.95  c-0.53-0.22-1.1-0.34-1.73-0.34c-1.04,0-1.92,0.37-2.63,1.1C297.73,415.87,297.38,416.77,297.38,417.83z"
   id="path867" />
<path
   class="st0"
   d="M310.26,410.57c-0.36,0-0.67-0.13-0.93-0.4s-0.39-0.58-0.39-0.94c0-0.36,0.13-0.68,0.39-0.95s0.57-0.4,0.93-0.4  c0.36,0,0.68,0.13,0.94,0.4c0.27,0.27,0.4,0.58,0.4,0.95c0,0.36-0.13,0.68-0.4,0.94C310.93,410.44,310.62,410.57,310.26,410.57z   M311.34,412.35v11.05h-2.17v-11.05H311.34z"
   id="path869" />
<path
   class="st0"
   d="M323.8,422.15c-0.64,0.49-1.3,0.86-2,1.1c-0.7,0.24-1.45,0.36-2.28,0.36c-0.81,0-1.57-0.15-2.28-0.45  c-0.71-0.3-1.33-0.7-1.85-1.21c-0.52-0.51-0.93-1.11-1.23-1.81c-0.3-0.7-0.45-1.46-0.45-2.27c0-0.8,0.15-1.54,0.43-2.24  c0.29-0.7,0.68-1.3,1.17-1.8c0.49-0.51,1.08-0.91,1.76-1.21c0.68-0.3,1.4-0.45,2.17-0.45c0.75,0,1.46,0.15,2.12,0.45  c0.66,0.3,1.22,0.7,1.69,1.22c0.47,0.51,0.84,1.13,1.12,1.83c0.27,0.71,0.41,1.47,0.41,2.28v0.63h-8.73  c0.15,0.91,0.56,1.67,1.26,2.27c0.7,0.6,1.52,0.9,2.47,0.9c0.54,0,1.05-0.09,1.54-0.26c0.49-0.17,0.91-0.41,1.26-0.72L323.8,422.15z   M319.22,414c-0.83,0-1.54,0.27-2.16,0.82c-0.62,0.55-1,1.26-1.16,2.13h6.56c-0.16-0.84-0.54-1.54-1.14-2.11  C320.72,414.29,320.02,414,319.22,414z"
   id="path871" />
<path
   class="st0"
   d="M325.95,421.97l1.17-1.43c0.58,0.45,1.17,0.79,1.77,1.03c0.6,0.24,1.21,0.36,1.84,0.36  c0.78,0,1.42-0.15,1.91-0.46c0.49-0.3,0.74-0.7,0.74-1.19c0-0.39-0.15-0.7-0.43-0.93c-0.29-0.23-0.74-0.39-1.35-0.48l-2-0.28  c-1.09-0.16-1.91-0.5-2.46-1.01s-0.84-1.2-0.84-2.05c0-1,0.4-1.81,1.19-2.42c0.8-0.62,1.84-0.92,3.13-0.92  c0.81,0,1.58,0.12,2.31,0.35c0.73,0.23,1.44,0.59,2.14,1.06l-1.11,1.43c-0.61-0.4-1.2-0.7-1.77-0.88c-0.57-0.18-1.15-0.27-1.73-0.27  c-0.67,0-1.2,0.14-1.61,0.41c-0.41,0.28-0.61,0.64-0.61,1.09c0,0.4,0.14,0.71,0.42,0.92c0.28,0.21,0.75,0.37,1.4,0.47l2,0.28  c1.09,0.16,1.91,0.5,2.49,1.02c0.57,0.52,0.86,1.21,0.86,2.06c0,0.49-0.12,0.95-0.36,1.38c-0.24,0.43-0.56,0.79-0.98,1.1  c-0.41,0.3-0.9,0.55-1.47,0.73c-0.56,0.18-1.17,0.27-1.82,0.27c-0.96,0-1.85-0.14-2.68-0.41  C327.28,422.91,326.56,422.51,325.95,421.97z"
   id="path873" />
<polygon
   class="st1"
   points="149.12,310.92 228.23,279.98 245.99,244.16 "
   id="polygon875" />
<polygon
   class="st2"
   points="195.93,278.79 175.57,277.62 246.16,244.08 "
   id="polygon877" />
<polygon
   class="st2"
   points="252.78,230.55 287.22,160.13 191.58,111.97 "
   id="polygon879" />
<polygon
   class="st3"
   points="252.84,230.56 214.29,155.87 185.08,153.96 "
   id="polygon881" />
<polygon
   class="st3"
   points="354.11,180.85 390.88,181.95 362.28,155.69 "
   id="polygon883" />
<polygon
   class="st1"
   points="332.47,249.27 362.35,155.69 305.5,196.54 "
   id="polygon885" />
<polygon
   class="st3"
   points="228.01,279.98 332.54,249.13 287.14,159.82 "
   id="polygon887" />
<path
   class="st4"
   d="M802.76,382.48l7.59-10.16c3.42,2.23,6.66,3.89,9.71,4.97c3.05,1.08,6.1,1.62,9.16,1.62  c3.42,0,6.16-0.56,8.21-1.68c2.05-1.12,3.07-2.61,3.07-4.47c0-1.49-0.58-2.68-1.73-3.57c-1.15-0.89-3-1.53-5.53-1.9l-11.17-1.68  c-5.73-0.89-10.11-2.75-13.12-5.58c-3.01-2.83-4.52-6.59-4.52-11.28c0-5.58,2.2-10.05,6.59-13.4c4.39-3.35,10.27-5.03,17.64-5.03  c4.24,0,8.38,0.61,12.4,1.84s7.85,3.04,11.5,5.42l-7.37,9.83c-3.2-1.86-6.25-3.25-9.16-4.19c-2.9-0.93-5.84-1.39-8.82-1.39  c-2.76,0-4.97,0.52-6.64,1.56c-1.68,1.04-2.51,2.42-2.51,4.13c0,1.56,0.61,2.77,1.84,3.63c1.23,0.86,3.26,1.47,6.09,1.84l11.17,1.68  c5.66,0.82,10.03,2.68,13.12,5.58c3.09,2.9,4.63,6.59,4.63,11.05c0,2.75-0.65,5.3-1.95,7.65c-1.3,2.35-3.07,4.37-5.3,6.09  c-2.23,1.71-4.91,3.05-8.04,4.02c-3.13,0.97-6.51,1.45-10.16,1.45c-5.29,0-10.24-0.69-14.85-2.07  C809.98,387.08,806.04,385.09,802.76,382.48z"
   id="path889" />
<path
   class="st4"
   d="M880.93,390.41c-6.25,0-11.35-1.66-15.3-4.97c-3.95-3.31-5.92-7.61-5.92-12.9c0-5.51,2.12-9.83,6.36-12.95  c4.24-3.13,10.09-4.69,17.53-4.69c2.38,0,4.76,0.19,7.15,0.56c2.38,0.37,4.73,0.93,7.04,1.68V353c0-3.35-1.04-5.88-3.13-7.59  c-2.08-1.71-5.14-2.57-9.16-2.57c-2.46,0-5.12,0.39-7.98,1.17c-2.87,0.78-6.12,1.99-9.77,3.63l-5.58-11.28  c4.54-2.08,8.95-3.65,13.23-4.69c4.28-1.04,8.5-1.56,12.67-1.56c7.82,0,13.9,1.88,18.26,5.64c4.36,3.76,6.53,9.06,6.53,15.91v37.74  h-15.07v-4.02c-2.46,1.71-5.04,2.98-7.76,3.8C887.31,390,884.28,390.41,880.93,390.41z M874.34,372.21c0,2.23,0.97,4,2.9,5.3  c1.93,1.3,4.5,1.95,7.7,1.95c2.53,0,4.86-0.32,6.98-0.95c2.12-0.63,4.08-1.54,5.86-2.74v-8.71c-1.86-0.74-3.82-1.28-5.86-1.62  c-2.05-0.33-4.19-0.5-6.42-0.5c-3.5,0-6.24,0.65-8.21,1.95C875.33,368.21,874.34,369.97,874.34,372.21z"
   id="path891" />
<path
   class="st4"
   d="M924.48,389.4v-58.18h15.3v6.36c1.86-2.53,4.11-4.45,6.76-5.75c2.64-1.3,5.56-1.95,8.76-1.95  c1.49,0.08,2.74,0.21,3.74,0.39c1.01,0.19,1.88,0.5,2.62,0.95v13.4c-1.12-0.52-2.35-0.91-3.68-1.17c-1.34-0.26-2.72-0.39-4.13-0.39  c-2.98,0-5.71,0.75-8.21,2.23c-2.5,1.49-4.45,3.65-5.86,6.48v37.63H924.48z"
   id="path893" />
<path
   class="st4"
   d="M983.43,331.23v33.83c0,3.72,1.1,6.7,3.29,8.93c2.19,2.23,5.12,3.35,8.77,3.35c2.61,0,4.93-0.5,6.98-1.51  c2.05-1.01,3.74-2.44,5.08-4.3v-40.31h15.3v58.18h-15.3v-4.69c-2.23,1.86-4.73,3.29-7.48,4.3c-2.75,1.01-5.73,1.51-8.93,1.51  c-6.7,0-12.21-2.18-16.53-6.53c-4.32-4.35-6.48-9.92-6.48-16.69v-36.07H983.43z"
   id="path895" />
<path
   class="st4"
   d="M1029.89,382.48l7.59-10.16c3.42,2.23,6.66,3.89,9.71,4.97c3.05,1.08,6.1,1.62,9.16,1.62  c3.42,0,6.16-0.56,8.21-1.68c2.05-1.12,3.07-2.61,3.07-4.47c0-1.49-0.58-2.68-1.73-3.57c-1.16-0.89-3-1.53-5.53-1.9l-11.17-1.68  c-5.73-0.89-10.11-2.75-13.12-5.58c-3.01-2.83-4.52-6.59-4.52-11.28c0-5.58,2.19-10.05,6.59-13.4c4.39-3.35,10.27-5.03,17.64-5.03  c4.24,0,8.38,0.61,12.4,1.84c4.02,1.23,7.85,3.04,11.5,5.42l-7.37,9.83c-3.2-1.86-6.25-3.25-9.16-4.19  c-2.9-0.93-5.84-1.39-8.82-1.39c-2.76,0-4.97,0.52-6.64,1.56c-1.68,1.04-2.51,2.42-2.51,4.13c0,1.56,0.61,2.77,1.84,3.63  c1.23,0.86,3.25,1.47,6.09,1.84l11.17,1.68c5.66,0.82,10.03,2.68,13.12,5.58c3.09,2.9,4.63,6.59,4.63,11.05  c0,2.75-0.65,5.3-1.95,7.65c-1.3,2.35-3.07,4.37-5.3,6.09c-2.23,1.71-4.91,3.05-8.04,4.02c-3.13,0.97-6.52,1.45-10.16,1.45  c-5.29,0-10.24-0.69-14.85-2.07C1037.11,387.08,1033.16,385.09,1029.89,382.48z"
   id="path897" />
<path
   class="st4"
   d="M879.32,420.67v-6.49h-2.35v-1.82h2.35v-2.82l2.15-0.52v3.34h3.26v1.82h-3.26v5.99c0,0.56,0.13,0.96,0.38,1.19  c0.25,0.23,0.67,0.35,1.25,0.35c0.3,0,0.58-0.02,0.81-0.05c0.24-0.04,0.5-0.1,0.77-0.21v1.82c-0.29,0.1-0.63,0.18-1.01,0.24  c-0.38,0.06-0.74,0.09-1.05,0.09c-1.07,0-1.89-0.25-2.45-0.75C879.61,422.35,879.32,421.62,879.32,420.67z"
   id="path899" />
<path
   class="st4"
   d="M896.24,422.15c-0.64,0.49-1.3,0.86-2,1.1c-0.69,0.24-1.45,0.36-2.28,0.36c-0.81,0-1.57-0.15-2.28-0.45  c-0.71-0.3-1.32-0.7-1.85-1.21c-0.52-0.51-0.93-1.11-1.23-1.81c-0.3-0.7-0.45-1.46-0.45-2.27c0-0.8,0.14-1.54,0.43-2.24  c0.29-0.7,0.68-1.3,1.17-1.8c0.49-0.51,1.08-0.91,1.76-1.21c0.68-0.3,1.4-0.45,2.17-0.45c0.75,0,1.46,0.15,2.12,0.45  c0.66,0.3,1.22,0.7,1.69,1.22c0.47,0.51,0.84,1.13,1.12,1.83c0.27,0.71,0.41,1.47,0.41,2.28v0.63h-8.73  c0.14,0.91,0.56,1.67,1.26,2.27c0.69,0.6,1.52,0.9,2.47,0.9c0.54,0,1.05-0.09,1.54-0.26c0.49-0.17,0.91-0.41,1.26-0.72  L896.24,422.15z M891.66,414c-0.82,0-1.54,0.27-2.16,0.82c-0.61,0.55-1,1.26-1.16,2.13h6.56c-0.16-0.84-0.54-1.54-1.14-2.11  C893.15,414.29,892.45,414,891.66,414z"
   id="path901" />
<path
   class="st4"
   d="M904.71,421.69c0.55,0,1.07-0.11,1.56-0.34c0.49-0.22,0.96-0.56,1.41-1.01l1.3,1.41  c-0.58,0.58-1.24,1.03-2,1.36c-0.75,0.33-1.54,0.49-2.37,0.49c-0.8,0-1.54-0.15-2.24-0.45c-0.69-0.3-1.3-0.7-1.8-1.21  c-0.51-0.51-0.91-1.11-1.2-1.81c-0.3-0.7-0.45-1.46-0.45-2.27c0-0.8,0.15-1.54,0.45-2.25c0.3-0.7,0.7-1.31,1.2-1.83  c0.51-0.51,1.11-0.92,1.8-1.21c0.7-0.3,1.44-0.45,2.24-0.45c0.83,0,1.63,0.16,2.41,0.49c0.78,0.33,1.46,0.78,2.04,1.36l-1.37,1.48  c-0.42-0.45-0.89-0.79-1.41-1.03c-0.52-0.24-1.06-0.36-1.63-0.36c-1,0-1.85,0.37-2.54,1.11c-0.7,0.74-1.04,1.64-1.04,2.69  c0,1.09,0.35,1.99,1.05,2.72C902.83,421.32,903.69,421.69,904.71,421.69z"
   id="path903" />
<path
   class="st4"
   d="M911.07,423.4v-15.2l2.17-0.48v5.73c0.43-0.43,0.93-0.76,1.49-0.99c0.56-0.22,1.17-0.34,1.83-0.34  c1.26,0,2.29,0.4,3.1,1.2c0.81,0.8,1.22,1.84,1.22,3.12v6.95h-2.17v-6.58c0-0.87-0.25-1.55-0.75-2.05c-0.5-0.5-1.16-0.75-1.99-0.75  c-0.58,0-1.1,0.12-1.57,0.37c-0.47,0.25-0.86,0.6-1.16,1.06v7.95H911.07z"
   id="path905" />
<path
   class="st4"
   d="M923.7,423.4v-11.05h2.17v1.11c0.43-0.43,0.93-0.76,1.49-0.99c0.56-0.22,1.17-0.34,1.83-0.34  c1.26,0,2.29,0.4,3.1,1.2c0.81,0.8,1.22,1.84,1.22,3.12v6.95h-2.17v-6.58c0-0.87-0.25-1.55-0.75-2.05c-0.5-0.5-1.16-0.75-1.99-0.75  c-0.58,0-1.1,0.12-1.57,0.37c-0.47,0.25-0.86,0.6-1.16,1.06v7.95H923.7z"
   id="path907" />
<path
   class="st4"
   d="M935.84,417.87c0-0.8,0.15-1.54,0.45-2.25c0.3-0.7,0.71-1.31,1.23-1.83c0.52-0.51,1.13-0.92,1.83-1.21  c0.7-0.3,1.45-0.45,2.25-0.45c0.8,0,1.54,0.15,2.25,0.45c0.7,0.3,1.31,0.7,1.82,1.21c0.51,0.51,0.92,1.12,1.22,1.83  c0.3,0.7,0.45,1.45,0.45,2.25c0,0.81-0.15,1.57-0.45,2.27c-0.3,0.7-0.7,1.31-1.22,1.83s-1.12,0.92-1.82,1.21  c-0.7,0.3-1.45,0.45-2.25,0.45c-0.8,0-1.54-0.15-2.25-0.45c-0.7-0.3-1.31-0.7-1.83-1.21s-0.93-1.12-1.23-1.83  C935.99,419.44,935.84,418.68,935.84,417.87z M941.59,421.71c1,0,1.85-0.37,2.55-1.12c0.7-0.75,1.05-1.65,1.05-2.72  c0-1.07-0.35-1.97-1.05-2.71c-0.7-0.74-1.55-1.11-2.55-1.11c-1,0-1.85,0.37-2.56,1.11c-0.71,0.74-1.06,1.64-1.06,2.71  c0,1.07,0.35,1.98,1.05,2.72C939.72,421.34,940.58,421.71,941.59,421.71z"
   id="path909" />
<path
   class="st4"
   d="M951.89,407.73v15.68h-2.17v-15.2L951.89,407.73z"
   id="path911" />
<path
   class="st4"
   d="M954.27,417.87c0-0.8,0.15-1.54,0.45-2.25c0.3-0.7,0.71-1.31,1.23-1.83c0.52-0.51,1.13-0.92,1.83-1.21  c0.7-0.3,1.45-0.45,2.25-0.45c0.8,0,1.54,0.15,2.25,0.45c0.7,0.3,1.31,0.7,1.82,1.21c0.51,0.51,0.92,1.12,1.22,1.83  c0.3,0.7,0.45,1.45,0.45,2.25c0,0.81-0.15,1.57-0.45,2.27c-0.3,0.7-0.7,1.31-1.22,1.83s-1.12,0.92-1.82,1.21  c-0.7,0.3-1.45,0.45-2.25,0.45c-0.8,0-1.54-0.15-2.25-0.45c-0.7-0.3-1.31-0.7-1.83-1.21c-0.52-0.51-0.93-1.12-1.23-1.83  C954.42,419.44,954.27,418.68,954.27,417.87z M960.03,421.71c1,0,1.85-0.37,2.55-1.12c0.7-0.75,1.05-1.65,1.05-2.72  c0-1.07-0.35-1.97-1.05-2.71c-0.7-0.74-1.55-1.11-2.55-1.11c-1,0-1.85,0.37-2.56,1.11c-0.71,0.74-1.06,1.64-1.06,2.71  c0,1.07,0.35,1.98,1.05,2.72C958.16,421.34,959.02,421.71,960.03,421.71z"
   id="path913" />
<path
   class="st4"
   d="M973.21,423.49c-0.77,0-1.49-0.15-2.17-0.45c-0.68-0.3-1.27-0.7-1.77-1.2c-0.5-0.51-0.89-1.11-1.18-1.8  s-0.43-1.43-0.43-2.21c0-0.78,0.15-1.52,0.43-2.22c0.29-0.69,0.68-1.29,1.18-1.8c0.5-0.51,1.09-0.91,1.78-1.2  c0.69-0.3,1.42-0.45,2.2-0.45c0.59,0,1.17,0.09,1.73,0.28c0.56,0.19,1.08,0.46,1.55,0.83v-0.91h2.15v11.2  c0,1.43-0.44,2.54-1.31,3.31c-0.88,0.77-2.12,1.16-3.75,1.16c-0.8,0-1.58-0.1-2.36-0.28s-1.47-0.46-2.09-0.8l0.85-1.69  c0.62,0.32,1.22,0.56,1.8,0.72c0.58,0.16,1.16,0.24,1.74,0.24c0.96,0,1.69-0.22,2.19-0.67c0.51-0.45,0.76-1.11,0.76-1.98v-1.24  c-0.46,0.38-0.98,0.67-1.54,0.87C974.4,423.39,973.82,423.49,973.21,423.49z M969.78,417.83c0,1.06,0.35,1.95,1.06,2.68  c0.71,0.73,1.59,1.1,2.63,1.1c0.62,0,1.2-0.11,1.72-0.34s0.96-0.54,1.32-0.95v-4.99c-0.35-0.4-0.78-0.72-1.31-0.95  c-0.53-0.22-1.1-0.34-1.73-0.34c-1.04,0-1.92,0.37-2.63,1.1C970.13,415.87,969.78,416.77,969.78,417.83z"
   id="path915" />
<path
   class="st4"
   d="M982.65,410.57c-0.36,0-0.67-0.13-0.93-0.4s-0.39-0.58-0.39-0.94c0-0.36,0.13-0.68,0.39-0.95s0.57-0.4,0.93-0.4  c0.36,0,0.68,0.13,0.94,0.4c0.27,0.27,0.4,0.58,0.4,0.95c0,0.36-0.13,0.68-0.4,0.94C983.33,410.44,983.01,410.57,982.65,410.57z   M983.74,412.35v11.05h-2.17v-11.05H983.74z"
   id="path917" />
<path
   class="st4"
   d="M996.2,422.15c-0.64,0.49-1.3,0.86-2,1.1c-0.7,0.24-1.45,0.36-2.28,0.36c-0.81,0-1.57-0.15-2.28-0.45  c-0.71-0.3-1.33-0.7-1.85-1.21c-0.52-0.51-0.93-1.11-1.23-1.81c-0.3-0.7-0.45-1.46-0.45-2.27c0-0.8,0.15-1.54,0.43-2.24  c0.29-0.7,0.68-1.3,1.17-1.8c0.49-0.51,1.08-0.91,1.76-1.21c0.68-0.3,1.4-0.45,2.17-0.45c0.75,0,1.46,0.15,2.12,0.45  c0.66,0.3,1.22,0.7,1.69,1.22c0.47,0.51,0.84,1.13,1.12,1.83c0.27,0.71,0.41,1.47,0.41,2.28v0.63h-8.73  c0.15,0.91,0.56,1.67,1.26,2.27c0.7,0.6,1.52,0.9,2.47,0.9c0.54,0,1.05-0.09,1.54-0.26c0.49-0.17,0.91-0.41,1.26-0.72L996.2,422.15z   M991.62,414c-0.83,0-1.54,0.27-2.16,0.82c-0.62,0.55-1,1.26-1.16,2.13h6.56c-0.16-0.84-0.54-1.54-1.14-2.11  C993.12,414.29,992.42,414,991.62,414z"
   id="path919" />
<path
   class="st4"
   d="M998.35,421.97l1.17-1.43c0.58,0.45,1.17,0.79,1.77,1.03c0.6,0.24,1.21,0.36,1.84,0.36  c0.78,0,1.42-0.15,1.91-0.46c0.49-0.3,0.74-0.7,0.74-1.19c0-0.39-0.15-0.7-0.43-0.93c-0.29-0.23-0.74-0.39-1.35-0.48l-2-0.28  c-1.09-0.16-1.91-0.5-2.46-1.01c-0.56-0.51-0.84-1.2-0.84-2.05c0-1,0.4-1.81,1.19-2.42c0.8-0.62,1.84-0.92,3.13-0.92  c0.81,0,1.58,0.12,2.31,0.35c0.73,0.23,1.44,0.59,2.14,1.06l-1.11,1.43c-0.61-0.4-1.2-0.7-1.77-0.88c-0.57-0.18-1.15-0.27-1.73-0.27  c-0.67,0-1.2,0.14-1.61,0.41c-0.41,0.28-0.61,0.64-0.61,1.09c0,0.4,0.14,0.71,0.42,0.92c0.28,0.21,0.75,0.37,1.4,0.47l2,0.28  c1.09,0.16,1.91,0.5,2.49,1.02c0.57,0.52,0.86,1.21,0.86,2.06c0,0.49-0.12,0.95-0.36,1.38c-0.24,0.43-0.56,0.79-0.98,1.1  c-0.41,0.3-0.9,0.55-1.47,0.73c-0.56,0.18-1.17,0.27-1.82,0.27c-0.96,0-1.85-0.14-2.68-0.41  C999.68,422.91,998.96,422.51,998.35,421.97z"
   id="path921" />
<polygon
   class="st1"
   points="821.51,310.92 900.62,279.98 918.39,244.16 "
   id="polygon923" />
<polygon
   class="st2"
   points="868.33,278.79 847.97,277.62 918.56,244.08 "
   id="polygon925" />
<polygon
   class="st2"
   points="925.17,230.55 959.62,160.13 863.98,111.97 "
   id="polygon927" />
<polygon
   class="st3"
   points="925.24,230.56 886.69,155.87 857.48,153.96 "
   id="polygon929" />
<polygon
   class="st3"
   points="1026.5,180.85 1063.28,181.95 1034.68,155.69 "
   id="polygon931" />
<polygon
   class="st1"
   points="1004.87,249.27 1034.75,155.69 977.9,196.54 "
   id="polygon933" />
<polygon
   class="st3"
   points="900.41,279.98 1004.94,249.13 959.54,159.82 "
   id="polygon935" />
</svg>
